<?xml version="1.0" standalone="no"?>
<!DOCTYPE svg PUBLIC "-//W3C//DTD SVG 20010904//EN"
 "http://www.w3.org/TR/2001/REC-SVG-20010904/DTD/svg10.dtd">
<svg version="1.0" xmlns="http://www.w3.org/2000/svg"
 width="541.000000pt" height="433.000000pt" viewBox="0 0 541.000000 433.000000"
 preserveAspectRatio="xMidYMid meet">

<g transform="translate(0.000000,433.000000) scale(0.100000,-0.100000)"
fill="#000000" stroke="none">
<path d="M0 2165 l0 -2165 2705 0 2705 0 0 2165 0 2165 -2705 0 -2705 0 0
-2165z m3808 2030 c96 -23 179 -70 253 -144 89 -89 136 -184 154 -313 l7 -46
-463 -5 c-615 -5 -565 13 -879 -310 -95 -98 -177 -176 -181 -175 -5 2 -86 80
-181 174 -228 225 -264 253 -377 291 -39 14 -119 17 -509 20 l-463 4 6 37 c24
146 60 225 147 318 65 69 162 126 254 148 90 22 2140 22 2232 1z m-2315 -1612
c3 -794 3 -798 26 -878 49 -174 137 -321 258 -435 77 -73 910 -770 919 -770
14 0 900 748 955 806 99 106 180 249 220 389 l23 80 4 803 3 802 159 0 160 0
0 -752 c0 -795 -4 -869 -49 -1033 -59 -215 -186 -418 -357 -571 -43 -38 -248
-211 -454 -384 -206 -173 -436 -366 -510 -428 -74 -63 -141 -116 -148 -119
-11 -5 -33 11 -137 99 -11 9 -54 45 -96 80 -492 411 -898 757 -959 818 -151
151 -257 352 -313 595 -20 86 -21 124 -24 893 l-4 802 160 0 160 0 4 -797z
m1202 -93 c5 0 153 143 328 318 l317 317 -2 -740 -3 -740 -27 -57 c-38 -83
-77 -126 -190 -215 -55 -43 -155 -121 -222 -173 -156 -122 -193 -150 -201
-150 -14 0 -483 368 -531 416 -22 23 -56 73 -75 110 l-34 69 -3 740 -2 740
317 -317 c175 -175 323 -318 328 -318z"/>
</g>
</svg>
